<svg width="32" height="32" viewBox="0 0 32 32" fill="none" xmlns="http://www.w3.org/2000/svg">
<rect width="32" height="32" rx="10" fill="#F2F3F4"/>
<path fill-rule="evenodd" clip-rule="evenodd" d="M16.6248 7.66602C16.6248 7.32084 16.345 7.04102 15.9998 7.04102C15.6547 7.04102 15.3748 7.32084 15.3748 7.66602V9.33268C15.3748 9.67786 15.6547 9.95768 15.9998 9.95768C16.345 9.95768 16.6248 9.67786 16.6248 9.33268V7.66602ZM11.4418 10.5574C11.1977 10.3133 10.802 10.3133 10.5579 10.5574C10.3138 10.8015 10.3138 11.1972 10.5579 11.4413L10.8439 11.7273C11.088 11.9714 11.4838 11.9714 11.7278 11.7273C11.9719 11.4833 11.9719 11.0875 11.7278 10.8435L11.4418 10.5574ZM21.4418 11.4413C21.6859 11.1972 21.6859 10.8015 21.4418 10.5574C21.1977 10.3133 20.802 10.3133 20.5579 10.5574L20.2718 10.8435C20.0278 11.0875 20.0278 11.4833 20.2718 11.7273C20.5159 11.9714 20.9116 11.9714 21.1557 11.7273L21.4418 11.4413ZM7.6665 15.3743C7.32133 15.3743 7.0415 15.6542 7.0415 15.9993C7.0415 16.3445 7.32133 16.6243 7.6665 16.6243H9.33317C9.67835 16.6243 9.95817 16.3445 9.95817 15.9993C9.95817 15.6542 9.67835 15.3743 9.33317 15.3743H7.6665ZM22.6665 15.3743C22.3213 15.3743 22.0415 15.6542 22.0415 15.9993C22.0415 16.3445 22.3213 16.6243 22.6665 16.6243H24.3332C24.6783 16.6243 24.9582 16.3445 24.9582 15.9993C24.9582 15.6542 24.6783 15.3743 24.3332 15.3743H22.6665ZM11.7277 21.1554C11.9717 20.9113 11.9717 20.5156 11.7277 20.2715C11.4836 20.0275 11.0878 20.0275 10.8438 20.2715L10.5579 20.5574C10.3138 20.8015 10.3138 21.1972 10.5579 21.4413C10.802 21.6854 11.1977 21.6854 11.4418 21.4413L11.7277 21.1554ZM21.1559 20.2715C20.9118 20.0275 20.5161 20.0275 20.272 20.2715C20.0279 20.5156 20.0279 20.9113 20.272 21.1554L20.5579 21.4413C20.802 21.6854 21.1977 21.6854 21.4418 21.4413C21.6859 21.1972 21.6859 20.8015 21.4418 20.5574L21.1559 20.2715ZM16.6248 22.666C16.6248 22.3208 16.345 22.041 15.9998 22.041C15.6547 22.041 15.3748 22.3208 15.3748 22.666V24.3327C15.3748 24.6779 15.6547 24.9577 15.9998 24.9577C16.345 24.9577 16.6248 24.6779 16.6248 24.3327V22.666ZM14.3778 19.1844C13.2077 18.2418 11.8335 17.1347 11.8335 15.2156C11.8335 13.097 14.1252 11.5945 16.0002 13.6313C17.8751 11.5945 20.1668 13.097 20.1668 15.2156C20.1668 17.1347 18.7926 18.2418 17.6226 19.1844C17.5009 19.2824 17.3815 19.3786 17.2661 19.4737C16.8335 19.8303 16.4168 20.166 16.0002 20.166C15.5835 20.166 15.1668 19.8303 14.7342 19.4737C14.6188 19.3786 14.4994 19.2824 14.3778 19.1844Z" fill="#4F606D"/>
</svg>
