<svg width="343" height="40" viewBox="0 0 343 40" fill="none" xmlns="http://www.w3.org/2000/svg">
<path fill-rule="evenodd" clip-rule="evenodd" d="M275.247 19.0544L271.845 16.3203C271.514 16.0543 271.04 15.9096 270.546 15.9225C270.053 15.9357 269.594 16.1056 269.292 16.388L266.749 18.7582C266 19.4572 264.868 19.8582 263.645 19.8582H254.755C253.969 19.8582 253.301 20.2457 253.13 20.801L249.679 28.7645L246.044 1.10232C245.975 0.513049 245.333 0.0510417 244.518 0.00387889C243.702 -0.0429702 242.966 0.338934 242.768 0.912626L236.959 17.7197L234.744 15.2629C234.425 14.9088 233.865 14.7 233.28 14.7176C232.696 14.7354 232.161 14.9778 231.883 15.3502L229.538 18.5004C228.851 19.4225 227.526 19.9954 226.077 19.9954H222.636C221.425 19.9954 220.301 19.6012 219.551 18.9142L217.014 16.5897C216.695 16.2985 216.22 16.1316 215.707 16.1316C215.193 16.1317 214.716 16.2988 214.4 16.5898L212.53 18.3023C211.355 19.3783 209.595 19.9955 207.7 19.9955L169.173 19.9954C168.061 19.9954 166.996 19.6525 166.252 19.0544L162.851 16.3207C162.52 16.0547 162.048 15.9094 161.552 15.9225C161.057 15.9356 160.6 16.1052 160.296 16.388L157.754 18.7582C157.004 19.4572 155.872 19.8582 154.649 19.8582H145.76C144.974 19.8582 144.306 20.2457 144.134 20.801L140.684 28.3866L137.049 3.50527C136.98 2.91589 136.338 2.45378 135.523 2.4064C134.706 2.35903 133.972 2.74135 133.773 3.31515L127.964 17.7197L125.749 15.2633C125.43 14.909 124.868 14.6995 124.284 14.7176C123.7 14.7353 123.165 14.9777 122.888 15.3502L120.542 18.5004C119.856 19.4225 118.53 19.9954 117.082 19.9954H113.64C112.43 19.9954 111.305 19.6012 110.555 18.9142L108.017 16.5882C107.702 16.3004 107.231 16.1335 106.724 16.1303C106.221 16.1263 105.742 16.2882 105.42 16.5721L102.883 18.8157C102.133 19.4783 101.024 19.8583 99.841 19.8583H94.1807C93.4137 19.8583 92.749 20.2342 92.5639 20.7728L88.5391 32.506L84.5337 1.75225C84.4558 1.15461 83.7978 0.696262 82.9693 0.662381C82.1403 0.628708 81.4157 1.03017 81.2451 1.61766L75.7347 20.5898L74.4461 16.5306C74.2914 16.0435 73.7498 15.6815 73.0663 15.6084C72.383 15.5355 71.7194 15.7686 71.3763 16.2026L69.6741 18.3574C68.9761 19.2409 67.6686 19.7897 66.2618 19.7897H0V22.0528H66.2618C68.6861 22.0528 70.9464 21.1451 72.2329 19.6697L74.1748 25.7871C74.3514 26.3424 75.0288 26.7272 75.8137 26.722C76.602 26.7157 77.2661 26.3225 77.4284 25.7641L82.3236 8.91033L86.2303 38.908C86.3067 39.4946 86.9519 39.9527 87.7646 39.9966C88.5771 40.0405 89.3095 39.6567 89.5055 39.0857L95.3247 22.1207H99.841C101.967 22.1207 103.958 21.4389 105.304 20.2489L106.689 19.0239L108.1 20.3168C109.447 21.5508 111.466 22.2577 113.64 22.2577H117.082C119.683 22.2577 122.064 21.2298 123.297 19.5732L124.474 17.9915L127.175 20.9871C127.537 21.3887 128.193 21.5958 128.847 21.5163C129.5 21.4368 130.026 21.0854 130.186 20.6211L134.677 10.0304L138.375 35.4527C138.446 36.0498 139.096 36.512 139.923 36.5528C139.962 36.5538 140 36.5549 140.038 36.5549C140.817 36.5549 141.489 36.1701 141.661 35.6127L146.932 22.1207H154.649C156.846 22.1207 158.879 21.4013 160.226 20.1453L161.696 18.775L163.927 20.5678C165.263 21.6418 167.176 22.2577 169.173 22.2577L207.7 22.2588C210.558 22.2588 213.214 21.327 214.985 19.7045L215.707 19.0439L217.096 20.3168C218.442 21.5508 220.462 22.2577 222.636 22.2577H226.077C228.678 22.2577 231.059 21.2298 232.292 19.5732L233.469 17.9915L236.171 20.9871C236.533 21.3887 237.189 21.5958 237.841 21.5173C238.495 21.4379 239.021 21.0854 239.181 20.6211L243.672 7.62773L247.37 34.7553C247.441 35.3524 248.092 35.8146 248.919 35.8554C248.958 35.8564 248.995 35.8575 249.034 35.8575C249.812 35.8575 250.484 35.4727 250.656 34.9153L255.928 22.1207H263.645C265.841 22.1207 267.874 21.4013 269.221 20.1453L270.692 18.775L272.922 20.5678C274.258 21.6418 276.171 22.2577 278.169 22.2577H343V19.9954H278.169C277.056 19.9954 275.992 19.6524 275.247 19.0544Z" fill="#8DB2CA"/>
</svg>
