<svg width="20" height="20" viewBox="0 0 20 20" fill="none" xmlns="http://www.w3.org/2000/svg">
<path d="M18.334 4.16699C18.334 5.5477 17.2147 6.66699 15.834 6.66699C14.4533 6.66699 13.334 5.5477 13.334 4.16699C13.334 2.78628 14.4533 1.66699 15.834 1.66699C17.2147 1.66699 18.334 2.78628 18.334 4.16699Z" fill="#4F606D"/>
<path fill-rule="evenodd" clip-rule="evenodd" d="M13.0093 1.69887C12.1577 1.66699 11.165 1.66699 9.99935 1.66699C6.07098 1.66699 4.10679 1.66699 2.8864 2.88738C1.66602 4.10777 1.66602 6.07195 1.66602 10.0003C1.66602 13.9287 1.66602 15.8929 2.8864 17.1133C4.10679 18.3337 6.07098 18.3337 9.99935 18.3337C13.9277 18.3337 15.8919 18.3337 17.1123 17.1133C18.3327 15.8929 18.3327 13.9287 18.3327 10.0003C18.3327 8.83469 18.3327 7.84199 18.3008 6.99034C17.6413 7.56734 16.7778 7.91699 15.8327 7.91699C13.7616 7.91699 12.0827 6.23806 12.0827 4.16699C12.0827 3.22186 12.4323 2.35839 13.0093 1.69887ZM14.5661 7.85352C14.8313 8.0745 14.8671 8.4686 14.6462 8.73377L13.1221 10.5626C12.8484 10.8912 12.6016 11.1873 12.3711 11.3955C12.1204 11.6219 11.8045 11.8236 11.3882 11.8236C10.972 11.8236 10.6561 11.6219 10.4053 11.3955C10.1748 11.1873 9.92808 10.8912 9.65436 10.5626L9.41069 10.2702C9.1017 9.89942 8.91194 9.67407 8.75562 9.53292C8.68313 9.46745 8.64013 9.44136 8.61951 9.43139C8.61533 9.42936 8.61235 9.42814 8.61046 9.42744L8.60704 9.42881L8.60141 9.43139C8.58079 9.44136 8.53779 9.46745 8.4653 9.53292C8.30898 9.67407 8.11922 9.89942 7.81023 10.2702L6.31282 12.0671C6.09184 12.3323 5.69774 12.3681 5.43257 12.1471C5.16739 11.9262 5.13157 11.5321 5.35254 11.2669L6.87657 9.43804C7.15029 9.1095 7.39705 8.81332 7.62755 8.60519C7.87833 8.37873 8.19422 8.17703 8.61046 8.17703C9.0267 8.17703 9.34259 8.37873 9.59337 8.60519C9.82386 8.81332 10.0706 9.1095 10.3443 9.43803L10.588 9.73043C10.897 10.1012 11.0868 10.3266 11.2431 10.4677C11.3156 10.5332 11.3586 10.5593 11.3792 10.5693L11.3819 10.5705C11.3847 10.5718 11.3882 10.5732 11.3882 10.5732C11.3901 10.5725 11.3931 10.5713 11.3973 10.5693C11.4179 10.5593 11.4609 10.5332 11.5334 10.4677C11.6897 10.3266 11.8795 10.1012 12.1885 9.73043L13.6859 7.93354C13.9069 7.66837 14.301 7.63254 14.5661 7.85352Z" fill="#4F606D"/>
</svg>
