<svg width="343" height="150" viewBox="0 0 343 150" fill="none" xmlns="http://www.w3.org/2000/svg">
<path d="M16 66.2C16 59.4794 16 56.1191 17.3079 53.5521C18.4584 51.2942 20.2942 49.4584 22.5521 48.3079C25.1191 47 28.4794 47 35.2 47H37.8C44.5206 47 47.8809 47 50.4479 48.3079C52.7058 49.4584 54.5416 51.2942 55.6921 53.5521C57 56.1191 57 59.4794 57 66.2V123.6C57 125.84 57 126.96 56.564 127.816C56.1805 128.569 55.5686 129.181 54.816 129.564C53.9603 130 52.8402 130 50.6 130H22.4C20.1598 130 19.0397 130 18.184 129.564C17.4314 129.181 16.8195 128.569 16.436 127.816C16 126.96 16 125.84 16 123.6V66.2Z" fill="url(#paint0_linear_174_6726)"/>
<path d="M33.3882 68.169C32.8076 68.169 32.2746 68.0238 31.7892 67.7335C31.3039 67.4432 30.9161 67.0553 30.6257 66.57C30.3354 66.0847 30.1902 65.5473 30.1902 64.958C30.1902 64.6547 30.2249 64.373 30.2942 64.113C30.3679 63.853 30.4806 63.5908 30.6322 63.3265L33.1802 58.9H35.0197L33.3102 61.8575C33.6612 61.8315 33.9992 61.8618 34.3242 61.9485C34.6492 62.0352 34.9504 62.1717 35.2277 62.358C35.5051 62.5443 35.7477 62.7697 35.9557 63.034C36.1637 63.2983 36.3241 63.593 36.4367 63.918C36.5537 64.243 36.6122 64.5897 36.6122 64.958C36.6122 65.4 36.5277 65.8138 36.3587 66.1995C36.1941 66.5852 35.9644 66.9275 35.6697 67.2265C35.3751 67.5212 35.0327 67.753 34.6427 67.922C34.2527 68.0867 33.8346 68.169 33.3882 68.169ZM33.3882 66.583C33.7046 66.583 33.9862 66.5072 34.2332 66.3555C34.4802 66.1995 34.6731 65.998 34.8117 65.751C34.9547 65.504 35.0262 65.2418 35.0262 64.9645C35.0262 64.6655 34.9547 64.3925 34.8117 64.1455C34.6687 63.8985 34.4737 63.7013 34.2267 63.554C33.9841 63.4067 33.7089 63.333 33.4012 63.333C33.0849 63.333 32.8032 63.411 32.5562 63.567C32.3136 63.7187 32.1229 63.918 31.9842 64.165C31.8456 64.412 31.7762 64.6785 31.7762 64.9645C31.7762 65.2722 31.8521 65.5473 32.0037 65.79C32.1554 66.0327 32.3526 66.2255 32.5952 66.3685C32.8422 66.5115 33.1066 66.583 33.3882 66.583ZM38.885 68L40.6335 64.9775C40.2045 65.0035 39.795 64.945 39.405 64.802C39.0193 64.659 38.6748 64.4467 38.3715 64.165C38.0682 63.8833 37.8277 63.5497 37.65 63.164C37.4767 62.7783 37.39 62.3602 37.39 61.9095C37.39 61.4718 37.4723 61.0623 37.637 60.681C37.8017 60.2953 38.0292 59.9573 38.3195 59.667C38.6142 59.3723 38.9522 59.1427 39.3335 58.978C39.7192 58.8133 40.133 58.731 40.575 58.731C41.1513 58.731 41.6778 58.874 42.1545 59.16C42.6355 59.446 43.019 59.8295 43.305 60.3105C43.5953 60.7915 43.7405 61.3245 43.7405 61.9095C43.7405 62.1998 43.7037 62.475 43.63 62.735C43.5607 62.9907 43.4502 63.2507 43.2985 63.515L40.718 68H38.885ZM40.562 63.502C40.874 63.502 41.1492 63.4262 41.3875 63.2745C41.6302 63.1228 41.8187 62.9257 41.953 62.683C42.0873 62.4403 42.1545 62.1803 42.1545 61.903C42.1545 61.5997 42.0808 61.3288 41.9335 61.0905C41.7862 60.8478 41.5912 60.6593 41.3485 60.525C41.1058 60.3863 40.848 60.317 40.575 60.317C40.263 60.317 39.9857 60.3928 39.743 60.5445C39.5047 60.6918 39.3162 60.8868 39.1775 61.1295C39.0388 61.3722 38.9695 61.63 38.9695 61.903C38.9695 62.1933 39.0388 62.4598 39.1775 62.7025C39.3205 62.9452 39.5112 63.1402 39.7495 63.2875C39.9922 63.4305 40.263 63.502 40.562 63.502Z" fill="white"/>
<path d="M24.4768 147L26.2383 137.9H27.3303L29.6638 144.029L31.9843 137.9H33.0763L34.8443 147H33.4663L32.2898 140.909L30.1123 146.655H29.2023L27.0313 140.909L25.8548 147H24.4768ZM38.6356 147.169C38.0376 147.169 37.4916 147.015 36.9976 146.707C36.5079 146.4 36.1158 145.988 35.8211 145.472C35.5308 144.952 35.3856 144.378 35.3856 143.75C35.3856 143.273 35.4701 142.829 35.6391 142.417C35.8081 142.001 36.0399 141.637 36.3346 141.325C36.6336 141.009 36.9803 140.762 37.3746 140.584C37.7689 140.407 38.1893 140.318 38.6356 140.318C39.2336 140.318 39.7774 140.472 40.2671 140.779C40.7611 141.087 41.1533 141.501 41.4436 142.021C41.7383 142.541 41.8856 143.117 41.8856 143.75C41.8856 144.222 41.8011 144.664 41.6321 145.076C41.4631 145.488 41.2291 145.852 40.9301 146.168C40.6354 146.48 40.2909 146.725 39.8966 146.902C39.5066 147.08 39.0863 147.169 38.6356 147.169ZM38.6356 145.817C38.9953 145.817 39.3181 145.722 39.6041 145.531C39.8901 145.34 40.1154 145.089 40.2801 144.777C40.4491 144.461 40.5336 144.118 40.5336 143.75C40.5336 143.373 40.4469 143.026 40.2736 142.71C40.1046 142.394 39.8771 142.142 39.5911 141.956C39.3051 141.765 38.9866 141.67 38.6356 141.67C38.2803 141.67 37.9574 141.765 37.6671 141.956C37.3811 142.147 37.1536 142.4 36.9846 142.716C36.8199 143.033 36.7376 143.377 36.7376 143.75C36.7376 144.136 36.8243 144.484 36.9976 144.796C37.1709 145.108 37.4006 145.358 37.6866 145.544C37.9769 145.726 38.2933 145.817 38.6356 145.817ZM48.7858 142.924V147H47.4338V143.256C47.4338 142.966 47.3623 142.701 47.2193 142.463C47.0806 142.225 46.8921 142.036 46.6538 141.897C46.4198 141.754 46.1554 141.683 45.8608 141.683C45.5748 141.683 45.3126 141.754 45.0743 141.897C44.8359 142.036 44.6453 142.225 44.5023 142.463C44.3593 142.701 44.2878 142.966 44.2878 143.256V147H42.9358V140.5H44.2878V141.189C44.5131 140.92 44.7904 140.708 45.1198 140.552C45.4491 140.396 45.8044 140.318 46.1858 140.318C46.6668 140.318 47.1044 140.435 47.4988 140.669C47.8931 140.903 48.2051 141.217 48.4348 141.611C48.6688 142.006 48.7858 142.443 48.7858 142.924Z" fill="#4F606D"/>
<path d="M61 43.2C61 36.4794 61 33.1191 62.3079 30.5521C63.4584 28.2942 65.2942 26.4584 67.5521 25.3079C70.1191 24 73.4794 24 80.2 24H82.8C89.5206 24 92.8809 24 95.4479 25.3079C97.7058 26.4584 99.5416 28.2942 100.692 30.5521C102 33.1191 102 36.4794 102 43.2V123.6C102 125.84 102 126.96 101.564 127.816C101.181 128.569 100.569 129.181 99.816 129.564C98.9603 130 97.8402 130 95.6 130H67.4C65.1598 130 64.0397 130 63.184 129.564C62.4314 129.181 61.8195 128.569 61.436 127.816C61 126.96 61 125.84 61 123.6V43.2Z" fill="url(#paint1_linear_174_6726)"/>
<path d="M79.3485 45.169C78.7895 45.169 78.2825 45.0412 77.8275 44.7855C77.3725 44.5298 77.0085 44.1875 76.7355 43.7585C76.4668 43.3252 76.3325 42.8442 76.3325 42.3155C76.3325 41.8995 76.4257 41.5095 76.612 41.1455C76.8027 40.7772 77.0583 40.4673 77.379 40.216C77.1277 39.9863 76.9218 39.7155 76.7615 39.4035C76.6055 39.0872 76.5275 38.7492 76.5275 38.3895C76.5275 37.8998 76.6553 37.4535 76.911 37.0505C77.1667 36.6475 77.5068 36.3268 77.9315 36.0885C78.3605 35.8502 78.8328 35.731 79.3485 35.731C79.8685 35.731 80.3408 35.8502 80.7655 36.0885C81.1902 36.3268 81.5303 36.6475 81.786 37.0505C82.0417 37.4535 82.1695 37.8998 82.1695 38.3895C82.1695 38.7492 82.0915 39.0872 81.9355 39.4035C81.7838 39.7155 81.578 39.9863 81.318 40.216C81.6473 40.4673 81.9052 40.7772 82.0915 41.1455C82.2822 41.5095 82.3775 41.8995 82.3775 42.3155C82.3775 42.8398 82.241 43.3187 81.968 43.752C81.6993 44.181 81.3353 44.5255 80.876 44.7855C80.4167 45.0412 79.9075 45.169 79.3485 45.169ZM79.3485 43.583C79.5998 43.583 79.8273 43.5267 80.031 43.414C80.2347 43.297 80.3972 43.1432 80.5185 42.9525C80.6398 42.7618 80.7005 42.5495 80.7005 42.3155C80.7005 42.0815 80.6398 41.8692 80.5185 41.6785C80.3972 41.4878 80.2347 41.3362 80.031 41.2235C79.8273 41.1065 79.5998 41.048 79.3485 41.048C79.1015 41.048 78.8762 41.1065 78.6725 41.2235C78.4688 41.3362 78.3042 41.4878 78.1785 41.6785C78.0572 41.8692 77.9965 42.0815 77.9965 42.3155C77.9965 42.5495 78.0572 42.7618 78.1785 42.9525C78.3042 43.1432 78.4688 43.297 78.6725 43.414C78.8762 43.5267 79.1015 43.583 79.3485 43.583ZM79.3485 39.462C79.5608 39.462 79.7537 39.4143 79.927 39.319C80.1003 39.2193 80.2368 39.0893 80.3365 38.929C80.4405 38.7687 80.4925 38.5888 80.4925 38.3895C80.4925 38.1902 80.4405 38.0103 80.3365 37.85C80.2368 37.6897 80.1003 37.5618 79.927 37.4665C79.7537 37.3668 79.5608 37.317 79.3485 37.317C79.1405 37.317 78.9498 37.3668 78.7765 37.4665C78.6032 37.5618 78.4645 37.6897 78.3605 37.85C78.2565 38.0103 78.2045 38.1902 78.2045 38.3895C78.2045 38.5888 78.2565 38.7687 78.3605 38.929C78.4645 39.0893 78.6032 39.2193 78.7765 39.319C78.9498 39.4143 79.1405 39.462 79.3485 39.462ZM84.5605 45V37.486H83.4165L83.8455 35.9H86.1465V45H84.5605Z" fill="white"/>
<path d="M78.455 137.9V139.252H75.556V147H74.204V139.252H71.3115V137.9H78.455ZM78.6621 144.562V140.5H80.0141V144.231C80.0141 144.521 80.0856 144.786 80.2286 145.024C80.3716 145.262 80.5623 145.453 80.8006 145.596C81.0389 145.735 81.3011 145.804 81.5871 145.804C81.8774 145.804 82.1396 145.735 82.3736 145.596C82.6119 145.453 82.8004 145.262 82.9391 145.024C83.0821 144.786 83.1536 144.521 83.1536 144.231V140.5H84.5056L84.5121 147H83.1601L83.1536 146.298C82.9326 146.567 82.6574 146.779 82.3281 146.935C81.9988 147.091 81.6456 147.169 81.2686 147.169C80.7876 147.169 80.3499 147.052 79.9556 146.818C79.5613 146.584 79.2471 146.27 79.0131 145.875C78.7791 145.481 78.6621 145.043 78.6621 144.562ZM88.5868 147.169C87.9888 147.169 87.4428 147.015 86.9488 146.707C86.4591 146.4 86.0669 145.988 85.7723 145.472C85.4819 144.952 85.3368 144.378 85.3368 143.75C85.3368 143.273 85.4213 142.829 85.5903 142.417C85.7593 142.001 85.9911 141.637 86.2858 141.325C86.5848 141.009 86.9314 140.762 87.3258 140.584C87.7201 140.407 88.1404 140.318 88.5868 140.318C89.0851 140.318 89.5423 140.422 89.9583 140.63C90.3743 140.834 90.7296 141.117 91.0243 141.481C91.3189 141.841 91.5356 142.257 91.6743 142.729C91.8129 143.197 91.8541 143.696 91.7978 144.224H86.7863C86.8426 144.523 86.9509 144.794 87.1113 145.037C87.2759 145.275 87.4839 145.464 87.7353 145.602C87.9909 145.741 88.2748 145.813 88.5868 145.817C88.9161 145.817 89.2151 145.735 89.4838 145.57C89.7568 145.405 89.9799 145.178 90.1533 144.887L91.5248 145.206C91.2648 145.782 90.8726 146.255 90.3483 146.623C89.8239 146.987 89.2368 147.169 88.5868 147.169ZM86.7408 143.191H90.4328C90.3894 142.879 90.2789 142.597 90.1013 142.346C89.9279 142.09 89.7091 141.889 89.4448 141.741C89.1848 141.59 88.8988 141.514 88.5868 141.514C88.2791 141.514 87.9931 141.588 87.7288 141.735C87.4688 141.882 87.2521 142.084 87.0788 142.339C86.9098 142.591 86.7971 142.875 86.7408 143.191Z" fill="#4F606D"/>
<path d="M106 81.2C106 74.4794 106 71.1191 107.308 68.5521C108.458 66.2942 110.294 64.4584 112.552 63.3079C115.119 62 118.479 62 125.2 62H127.8C134.521 62 137.881 62 140.448 63.3079C142.706 64.4584 144.542 66.2942 145.692 68.5521C147 71.1191 147 74.4794 147 81.2V123.6C147 125.84 147 126.96 146.564 127.816C146.181 128.569 145.569 129.181 144.816 129.564C143.96 130 142.84 130 140.6 130H112.4C110.16 130 109.04 130 108.184 129.564C107.431 129.181 106.819 128.569 106.436 127.816C106 126.96 106 125.84 106 123.6V81.2Z" fill="url(#paint2_linear_174_6726)"/>
<path d="M124.304 83V80.7965H120.43V79.204L123.933 73.9H125.89V79.2105H126.657V80.7965H125.89V83H124.304ZM122.269 79.204L124.304 79.2105L124.297 76.0645L122.269 79.204ZM130.759 83.169C130.209 83.169 129.713 83.039 129.271 82.779C128.829 82.519 128.478 82.1702 128.218 81.7325C127.958 81.2905 127.828 80.8008 127.828 80.2635H129.414C129.414 80.5062 129.47 80.7272 129.583 80.9265C129.7 81.1258 129.86 81.2862 130.064 81.4075C130.268 81.5245 130.499 81.583 130.759 81.583C130.998 81.583 131.219 81.5245 131.422 81.4075C131.63 81.2862 131.797 81.1258 131.923 80.9265C132.049 80.7272 132.111 80.5062 132.111 80.2635C132.111 79.9472 132.027 79.685 131.858 79.477C131.689 79.2647 131.453 79.1065 131.149 79.0025C130.85 78.8985 130.502 78.8465 130.103 78.8465V77.6245C130.64 77.6245 131.065 77.5227 131.377 77.319C131.693 77.1153 131.851 76.8163 131.851 76.422C131.851 76.2183 131.799 76.032 131.695 75.863C131.591 75.694 131.453 75.5597 131.279 75.46C131.11 75.356 130.924 75.304 130.72 75.304C130.512 75.304 130.311 75.356 130.116 75.46C129.921 75.5597 129.761 75.694 129.635 75.863C129.514 76.032 129.453 76.2183 129.453 76.422H127.867C127.867 76.0493 127.943 75.7005 128.094 75.3755C128.246 75.0462 128.454 74.758 128.718 74.511C128.987 74.264 129.29 74.0712 129.628 73.9325C129.971 73.7895 130.328 73.718 130.701 73.718C131.191 73.718 131.643 73.8393 132.059 74.082C132.475 74.3247 132.809 74.6497 133.06 75.057C133.312 75.4643 133.437 75.9193 133.437 76.422C133.437 76.773 133.355 77.1175 133.19 77.4555C133.026 77.7935 132.792 78.0318 132.488 78.1705C132.753 78.2658 132.974 78.4262 133.151 78.6515C133.329 78.8725 133.463 79.126 133.554 79.412C133.65 79.6937 133.697 79.9775 133.697 80.2635C133.697 80.7965 133.563 81.284 133.294 81.726C133.026 82.1637 132.668 82.5147 132.222 82.779C131.78 83.039 131.292 83.169 130.759 83.169Z" fill="white"/>
<path d="M116.339 147L114.012 137.9H115.403L117.106 144.575L118.803 137.9H120.031L121.734 144.575L123.437 137.9H124.828L122.514 147H120.961L119.42 140.974L117.88 147H116.339ZM127.975 147.169C127.377 147.169 126.831 147.015 126.337 146.707C125.848 146.4 125.456 145.988 125.161 145.472C124.871 144.952 124.725 144.378 124.725 143.75C124.725 143.273 124.81 142.829 124.979 142.417C125.148 142.001 125.38 141.637 125.674 141.325C125.973 141.009 126.32 140.762 126.714 140.584C127.109 140.407 127.529 140.318 127.975 140.318C128.474 140.318 128.931 140.422 129.347 140.63C129.763 140.834 130.118 141.117 130.413 141.481C130.708 141.841 130.924 142.257 131.063 142.729C131.202 143.197 131.243 143.696 131.186 144.224H126.175C126.231 144.523 126.34 144.794 126.5 145.037C126.665 145.275 126.873 145.464 127.124 145.602C127.38 145.741 127.663 145.813 127.975 145.817C128.305 145.817 128.604 145.735 128.872 145.57C129.145 145.405 129.369 145.178 129.542 144.887L130.913 145.206C130.653 145.782 130.261 146.255 129.737 146.623C129.213 146.987 128.625 147.169 127.975 147.169ZM126.129 143.191H129.821C129.778 142.879 129.668 142.597 129.49 142.346C129.317 142.09 129.098 141.889 128.833 141.741C128.573 141.59 128.287 141.514 127.975 141.514C127.668 141.514 127.382 141.588 127.117 141.735C126.857 141.882 126.641 142.084 126.467 142.339C126.298 142.591 126.186 142.875 126.129 143.191ZM137.314 137.25H138.666V147H137.314V146.045C137.101 146.382 136.824 146.655 136.482 146.863C136.139 147.067 135.739 147.169 135.279 147.169C134.807 147.169 134.365 147.08 133.953 146.902C133.542 146.725 133.178 146.48 132.861 146.168C132.549 145.852 132.304 145.488 132.127 145.076C131.949 144.664 131.86 144.222 131.86 143.75C131.86 143.278 131.949 142.836 132.127 142.424C132.304 142.008 132.549 141.644 132.861 141.332C133.178 141.016 133.542 140.769 133.953 140.591C134.365 140.413 134.807 140.324 135.279 140.324C135.739 140.324 136.139 140.428 136.482 140.636C136.824 140.84 137.101 141.109 137.314 141.442V137.25ZM135.292 145.862C135.674 145.862 136.007 145.769 136.293 145.583C136.579 145.392 136.8 145.137 136.956 144.816C137.117 144.495 137.197 144.14 137.197 143.75C137.197 143.356 137.117 142.998 136.956 142.677C136.796 142.357 136.573 142.103 136.287 141.917C136.005 141.726 135.674 141.631 135.292 141.631C134.915 141.631 134.571 141.726 134.259 141.917C133.951 142.108 133.704 142.363 133.518 142.684C133.336 143.005 133.245 143.36 133.245 143.75C133.245 144.144 133.338 144.502 133.524 144.822C133.715 145.139 133.964 145.392 134.272 145.583C134.584 145.769 134.924 145.862 135.292 145.862Z" fill="#4F606D"/>
<path d="M151 53.2C151 46.4794 151 43.1191 152.308 40.5521C153.458 38.2942 155.294 36.4584 157.552 35.3079C160.119 34 163.479 34 170.2 34H172.8C179.521 34 182.881 34 185.448 35.3079C187.706 36.4584 189.542 38.2942 190.692 40.5521C192 43.1191 192 46.4794 192 53.2V123.6C192 125.84 192 126.96 191.564 127.816C191.181 128.569 190.569 129.181 189.816 129.564C188.96 130 187.84 130 185.6 130H157.4C155.16 130 154.04 130 153.184 129.564C152.431 129.181 151.819 128.569 151.436 127.816C151 126.96 151 125.84 151 123.6V53.2Z" fill="url(#paint3_linear_174_6726)"/>
<path d="M165.599 55L169.935 47.486H165.144V45.9H171.774V47.486L167.426 55H165.599ZM175.568 55.169C175.009 55.169 174.502 55.0412 174.047 54.7855C173.592 54.5298 173.228 54.1875 172.955 53.7585C172.686 53.3252 172.552 52.8442 172.552 52.3155C172.552 51.8995 172.645 51.5095 172.831 51.1455C173.022 50.7772 173.278 50.4673 173.598 50.216C173.347 49.9863 173.141 49.7155 172.981 49.4035C172.825 49.0872 172.747 48.7492 172.747 48.3895C172.747 47.8998 172.875 47.4535 173.13 47.0505C173.386 46.6475 173.726 46.3268 174.151 46.0885C174.58 45.8502 175.052 45.731 175.568 45.731C176.088 45.731 176.56 45.8502 176.985 46.0885C177.409 46.3268 177.75 46.6475 178.005 47.0505C178.261 47.4535 178.389 47.8998 178.389 48.3895C178.389 48.7492 178.311 49.0872 178.155 49.4035C178.003 49.7155 177.797 49.9863 177.537 50.216C177.867 50.4673 178.124 50.7772 178.311 51.1455C178.501 51.5095 178.597 51.8995 178.597 52.3155C178.597 52.8398 178.46 53.3187 178.187 53.752C177.919 54.181 177.555 54.5255 177.095 54.7855C176.636 55.0412 176.127 55.169 175.568 55.169ZM175.568 53.583C175.819 53.583 176.047 53.5267 176.25 53.414C176.454 53.297 176.616 53.1432 176.738 52.9525C176.859 52.7618 176.92 52.5495 176.92 52.3155C176.92 52.0815 176.859 51.8692 176.738 51.6785C176.616 51.4878 176.454 51.3362 176.25 51.2235C176.047 51.1065 175.819 51.048 175.568 51.048C175.321 51.048 175.095 51.1065 174.892 51.2235C174.688 51.3362 174.523 51.4878 174.398 51.6785C174.276 51.8692 174.216 52.0815 174.216 52.3155C174.216 52.5495 174.276 52.7618 174.398 52.9525C174.523 53.1432 174.688 53.297 174.892 53.414C175.095 53.5267 175.321 53.583 175.568 53.583ZM175.568 49.462C175.78 49.462 175.973 49.4143 176.146 49.319C176.32 49.2193 176.456 49.0893 176.556 48.929C176.66 48.7687 176.712 48.5888 176.712 48.3895C176.712 48.1902 176.66 48.0103 176.556 47.85C176.456 47.6897 176.32 47.5618 176.146 47.4665C175.973 47.3668 175.78 47.317 175.568 47.317C175.36 47.317 175.169 47.3668 174.996 47.4665C174.822 47.5618 174.684 47.6897 174.58 47.85C174.476 48.0103 174.424 48.1902 174.424 48.3895C174.424 48.5888 174.476 48.7687 174.58 48.929C174.684 49.0893 174.822 49.2193 174.996 49.319C175.169 49.4143 175.36 49.462 175.568 49.462Z" fill="white"/>
<path d="M168.049 137.9V139.252H165.15V147H163.798V139.252H160.905V137.9H168.049ZM175.204 142.924V147H173.852V143.256C173.852 142.966 173.78 142.701 173.637 142.463C173.499 142.225 173.31 142.036 173.072 141.897C172.838 141.754 172.573 141.683 172.279 141.683C171.993 141.683 171.731 141.754 171.492 141.897C171.254 142.036 171.063 142.225 170.92 142.463C170.777 142.701 170.706 142.966 170.706 143.256V147H169.354V137.25H170.706V141.189C170.931 140.92 171.208 140.708 171.538 140.552C171.867 140.396 172.222 140.318 172.604 140.318C173.085 140.318 173.522 140.435 173.917 140.669C174.311 140.903 174.623 141.217 174.853 141.611C175.087 142.006 175.204 142.443 175.204 142.924ZM176.241 144.562V140.5H177.593V144.231C177.593 144.521 177.665 144.786 177.808 145.024C177.951 145.262 178.141 145.453 178.38 145.596C178.618 145.735 178.88 145.804 179.166 145.804C179.457 145.804 179.719 145.735 179.953 145.596C180.191 145.453 180.38 145.262 180.518 145.024C180.661 144.786 180.733 144.521 180.733 144.231V140.5H182.085L182.091 147H180.739L180.733 146.298C180.512 146.567 180.237 146.779 179.907 146.935C179.578 147.091 179.225 147.169 178.848 147.169C178.367 147.169 177.929 147.052 177.535 146.818C177.14 146.584 176.826 146.27 176.592 145.875C176.358 145.481 176.241 145.043 176.241 144.562Z" fill="#4F606D"/>
<path d="M196 68.2C196 61.4794 196 58.1191 197.308 55.5521C198.458 53.2942 200.294 51.4584 202.552 50.3079C205.119 49 208.479 49 215.2 49H217.8C224.521 49 227.881 49 230.448 50.3079C232.706 51.4584 234.542 53.2942 235.692 55.5521C237 58.1191 237 61.4794 237 68.2V123.6C237 125.84 237 126.96 236.564 127.816C236.181 128.569 235.569 129.181 234.816 129.564C233.96 130 232.84 130 230.6 130H202.4C200.16 130 199.04 130 198.184 129.564C197.431 129.181 196.819 128.569 196.436 127.816C196 126.96 196 125.84 196 123.6V68.2Z" fill="url(#paint4_linear_174_6726)"/>
<path d="M213.275 70.169C212.69 70.169 212.162 70.0282 211.689 69.7465C211.217 69.4605 210.842 69.0813 210.565 68.609C210.292 68.1367 210.155 67.6188 210.155 67.0555H211.741C211.741 67.3372 211.811 67.595 211.949 67.829C212.088 68.0587 212.272 68.2428 212.502 68.3815C212.736 68.5158 212.994 68.583 213.275 68.583C213.557 68.583 213.813 68.5158 214.042 68.3815C214.272 68.2428 214.456 68.0587 214.595 67.829C214.733 67.595 214.803 67.3372 214.803 67.0555C214.803 66.7738 214.742 66.516 214.621 66.282C214.504 66.0437 214.311 65.8552 214.042 65.7165C213.778 65.5735 213.427 65.502 212.989 65.502H210.649L211.611 60.9H216.083V62.486H212.898L212.606 63.916L213.249 63.9225C213.865 63.9442 214.408 64.0937 214.881 64.371C215.353 64.6483 215.721 65.021 215.986 65.489C216.254 65.9527 216.389 66.4748 216.389 67.0555C216.389 67.4802 216.309 67.881 216.148 68.258C215.988 68.635 215.765 68.9665 215.479 69.2525C215.193 69.5385 214.861 69.7638 214.484 69.9285C214.112 70.0888 213.709 70.169 213.275 70.169ZM220.688 70.169C220.107 70.169 219.574 70.0238 219.089 69.7335C218.604 69.4432 218.216 69.0553 217.926 68.57C217.635 68.0847 217.49 67.5473 217.49 66.958C217.49 66.6547 217.525 66.373 217.594 66.113C217.668 65.853 217.78 65.5908 217.932 65.3265L220.48 60.9H222.32L220.61 63.8575C220.961 63.8315 221.299 63.8618 221.624 63.9485C221.949 64.0352 222.25 64.1717 222.528 64.358C222.805 64.5443 223.048 64.7697 223.256 65.034C223.464 65.2983 223.624 65.593 223.737 65.918C223.854 66.243 223.912 66.5897 223.912 66.958C223.912 67.4 223.828 67.8138 223.659 68.1995C223.494 68.5852 223.264 68.9275 222.97 69.2265C222.675 69.5212 222.333 69.753 221.943 69.922C221.553 70.0867 221.134 70.169 220.688 70.169ZM220.688 68.583C221.004 68.583 221.286 68.5072 221.533 68.3555C221.78 68.1995 221.973 67.998 222.112 67.751C222.255 67.504 222.326 67.2418 222.326 66.9645C222.326 66.6655 222.255 66.3925 222.112 66.1455C221.969 65.8985 221.774 65.7013 221.527 65.554C221.284 65.4067 221.009 65.333 220.701 65.333C220.385 65.333 220.103 65.411 219.856 65.567C219.613 65.7187 219.423 65.918 219.284 66.165C219.145 66.412 219.076 66.6785 219.076 66.9645C219.076 67.2722 219.152 67.5473 219.304 67.79C219.455 68.0327 219.652 68.2255 219.895 68.3685C220.142 68.5115 220.406 68.583 220.688 68.583Z" fill="white"/>
<path d="M210.469 147V137.9H215.831V139.252H211.821V141.449H215.207V142.801H211.821V147H210.469ZM216.461 147V140.5H217.813V141.189C218.038 140.92 218.316 140.708 218.645 140.552C218.974 140.396 219.33 140.318 219.711 140.318C219.954 140.318 220.194 140.35 220.433 140.415L219.893 141.78C219.724 141.715 219.555 141.683 219.386 141.683C219.1 141.683 218.838 141.754 218.6 141.897C218.361 142.036 218.171 142.225 218.028 142.463C217.885 142.701 217.813 142.966 217.813 143.256V147H216.461ZM221.184 140.5H222.536V147H221.184V140.5ZM221.873 139.557C221.665 139.557 221.491 139.49 221.353 139.356C221.214 139.222 221.145 139.053 221.145 138.849C221.145 138.65 221.214 138.483 221.353 138.348C221.491 138.21 221.663 138.14 221.866 138.14C222.066 138.14 222.235 138.21 222.373 138.348C222.512 138.483 222.581 138.65 222.581 138.849C222.581 139.053 222.512 139.222 222.373 139.356C222.239 139.49 222.072 139.557 221.873 139.557Z" fill="#4F606D"/>
<path d="M241 19.2C241 12.4794 241 9.11905 242.308 6.55211C243.458 4.29417 245.294 2.4584 247.552 1.30792C250.119 0 253.479 0 260.2 0H262.8C269.521 0 272.881 0 275.448 1.30792C277.706 2.4584 279.542 4.29417 280.692 6.55211C282 9.11905 282 12.4794 282 19.2V123.6C282 125.84 282 126.96 281.564 127.816C281.181 128.569 280.569 129.181 279.816 129.564C278.96 130 277.84 130 275.6 130H247.4C245.16 130 244.04 130 243.184 129.564C242.431 129.181 241.819 128.569 241.436 127.816C241 126.96 241 125.84 241 123.6V19.2Z" fill="url(#paint5_linear_174_6726)"/>
<path d="M253.306 21V13.486H252.162L252.591 11.9H254.892V21H253.306ZM259.866 21.169C259.337 21.169 258.856 21.0477 258.423 20.805C257.989 20.558 257.614 20.2178 257.298 19.7845C256.986 19.3512 256.746 18.8507 256.577 18.283C256.408 17.711 256.323 17.1 256.323 16.45C256.323 15.8 256.408 15.1912 256.577 14.6235C256.746 14.0515 256.986 13.5488 257.298 13.1155C257.614 12.6822 257.989 12.3442 258.423 12.1015C258.856 11.8545 259.337 11.731 259.866 11.731C260.394 11.731 260.875 11.8545 261.309 12.1015C261.742 12.3442 262.112 12.6822 262.42 13.1155C262.732 13.5488 262.973 14.0515 263.142 14.6235C263.315 15.1912 263.402 15.8 263.402 16.45C263.402 17.1 263.315 17.711 263.142 18.283C262.973 18.8507 262.732 19.3512 262.42 19.7845C262.112 20.2178 261.742 20.558 261.309 20.805C260.875 21.0477 260.394 21.169 259.866 21.169ZM259.866 19.583C260.329 19.583 260.713 19.4357 261.016 19.141C261.319 18.8463 261.545 18.4607 261.692 17.984C261.839 17.5073 261.913 16.996 261.913 16.45C261.913 15.8737 261.835 15.3493 261.679 14.877C261.523 14.4003 261.293 14.0212 260.99 13.7395C260.687 13.4578 260.312 13.317 259.866 13.317C259.515 13.317 259.209 13.4037 258.949 13.577C258.693 13.746 258.481 13.9778 258.312 14.2725C258.143 14.5672 258.017 14.903 257.935 15.28C257.853 15.6527 257.812 16.0427 257.812 16.45C257.812 16.9917 257.885 17.503 258.033 17.984C258.184 18.4607 258.412 18.8463 258.715 19.141C259.023 19.4357 259.406 19.583 259.866 19.583ZM267.432 21.169C266.903 21.169 266.422 21.0477 265.989 20.805C265.556 20.558 265.181 20.2178 264.865 19.7845C264.553 19.3512 264.312 18.8507 264.143 18.283C263.974 17.711 263.89 17.1 263.89 16.45C263.89 15.8 263.974 15.1912 264.143 14.6235C264.312 14.0515 264.553 13.5488 264.865 13.1155C265.181 12.6822 265.556 12.3442 265.989 12.1015C266.422 11.8545 266.903 11.731 267.432 11.731C267.961 11.731 268.442 11.8545 268.875 12.1015C269.308 12.3442 269.679 12.6822 269.987 13.1155C270.299 13.5488 270.539 14.0515 270.708 14.6235C270.881 15.1912 270.968 15.8 270.968 16.45C270.968 17.1 270.881 17.711 270.708 18.283C270.539 18.8507 270.299 19.3512 269.987 19.7845C269.679 20.2178 269.308 20.558 268.875 20.805C268.442 21.0477 267.961 21.169 267.432 21.169ZM267.432 19.583C267.896 19.583 268.279 19.4357 268.583 19.141C268.886 18.8463 269.111 18.4607 269.259 17.984C269.406 17.5073 269.48 16.996 269.48 16.45C269.48 15.8737 269.402 15.3493 269.246 14.877C269.09 14.4003 268.86 14.0212 268.557 13.7395C268.253 13.4578 267.878 13.317 267.432 13.317C267.081 13.317 266.776 13.4037 266.516 13.577C266.26 13.746 266.048 13.9778 265.879 14.2725C265.71 14.5672 265.584 14.903 265.502 15.28C265.419 15.6527 265.378 16.0427 265.378 16.45C265.378 16.9917 265.452 17.503 265.599 17.984C265.751 18.4607 265.978 18.8463 266.282 19.141C266.589 19.4357 266.973 19.583 267.432 19.583Z" fill="white"/>
<path d="M255.431 147.169C254.932 147.169 254.454 147.091 253.994 146.935C253.535 146.779 253.134 146.556 252.792 146.265C252.449 145.971 252.205 145.622 252.057 145.219L253.325 144.744C253.398 144.952 253.539 145.139 253.747 145.303C253.96 145.464 254.211 145.589 254.501 145.68C254.796 145.771 255.106 145.817 255.431 145.817C255.777 145.817 256.102 145.761 256.406 145.648C256.713 145.535 256.96 145.379 257.147 145.18C257.337 144.981 257.433 144.747 257.433 144.478C257.433 144.201 257.333 143.973 257.134 143.795C256.939 143.618 256.687 143.477 256.38 143.373C256.076 143.269 255.76 143.191 255.431 143.139C254.794 143.035 254.222 142.883 253.715 142.684C253.212 142.485 252.813 142.205 252.519 141.845C252.228 141.486 252.083 141.018 252.083 140.441C252.083 139.9 252.237 139.427 252.545 139.024C252.857 138.621 253.266 138.309 253.773 138.088C254.285 137.863 254.837 137.75 255.431 137.75C255.92 137.75 256.393 137.828 256.848 137.984C257.307 138.136 257.71 138.359 258.057 138.654C258.408 138.944 258.659 139.297 258.811 139.713L257.53 140.175C257.457 139.963 257.316 139.778 257.108 139.622C256.9 139.462 256.648 139.336 256.354 139.245C256.063 139.154 255.756 139.109 255.431 139.109C255.084 139.105 254.759 139.161 254.456 139.278C254.157 139.391 253.912 139.547 253.721 139.746C253.531 139.945 253.435 140.177 253.435 140.441C253.435 140.766 253.524 141.013 253.702 141.182C253.879 141.351 254.118 141.477 254.417 141.559C254.72 141.637 255.058 141.709 255.431 141.774C256.029 141.869 256.581 142.027 257.088 142.248C257.6 142.469 258.009 142.764 258.317 143.132C258.629 143.496 258.785 143.945 258.785 144.478C258.785 145.015 258.629 145.488 258.317 145.895C258.009 146.298 257.6 146.612 257.088 146.837C256.581 147.059 256.029 147.169 255.431 147.169ZM265.128 140.5H266.48V147H265.122L265.07 146.057C264.879 146.391 264.621 146.66 264.296 146.863C263.971 147.067 263.588 147.169 263.146 147.169C262.669 147.169 262.22 147.08 261.8 146.902C261.38 146.72 261.009 146.469 260.689 146.148C260.372 145.828 260.125 145.459 259.948 145.043C259.77 144.623 259.681 144.172 259.681 143.691C259.681 143.228 259.768 142.792 259.941 142.385C260.114 141.973 260.355 141.614 260.663 141.306C260.97 140.998 261.326 140.758 261.729 140.584C262.136 140.407 262.571 140.318 263.035 140.318C263.507 140.318 263.923 140.426 264.283 140.643C264.647 140.855 264.948 141.128 265.187 141.462L265.128 140.5ZM263.113 145.862C263.494 145.862 263.828 145.769 264.114 145.583C264.4 145.392 264.621 145.137 264.777 144.816C264.937 144.495 265.018 144.14 265.018 143.75C265.018 143.356 264.937 142.998 264.777 142.677C264.617 142.357 264.394 142.103 264.108 141.917C263.826 141.726 263.494 141.631 263.113 141.631C262.736 141.631 262.392 141.726 262.08 141.917C261.768 142.108 261.521 142.363 261.339 142.684C261.157 143.005 261.066 143.36 261.066 143.75C261.066 144.144 261.159 144.502 261.345 144.822C261.536 145.139 261.785 145.392 262.093 145.583C262.405 145.769 262.745 145.862 263.113 145.862ZM271.209 141.852H269.844L269.838 147H268.486L268.492 141.852H267.459V140.5H268.492L268.486 138.459H269.838L269.844 140.5H271.209V141.852Z" fill="#4F606D"/>
<path d="M286 57.2C286 50.4794 286 47.1191 287.308 44.5521C288.458 42.2942 290.294 40.4584 292.552 39.3079C295.119 38 298.479 38 305.2 38H307.8C314.521 38 317.881 38 320.448 39.3079C322.706 40.4584 324.542 42.2942 325.692 44.5521C327 47.1191 327 50.4794 327 57.2V123.6C327 125.84 327 126.96 326.564 127.816C326.181 128.569 325.569 129.181 324.816 129.564C323.96 130 322.84 130 320.6 130H292.4C290.16 130 289.04 130 288.184 129.564C287.431 129.181 286.819 128.569 286.436 127.816C286 126.96 286 125.84 286 123.6V57.2Z" fill="url(#paint6_linear_174_6726)"/>
<path d="M300.315 59L304.651 51.486H299.86V49.9H306.49V51.486L302.142 59H300.315ZM310.069 59.169C309.519 59.169 309.023 59.039 308.581 58.779C308.139 58.519 307.788 58.1702 307.528 57.7325C307.268 57.2905 307.138 56.8008 307.138 56.2635H308.724C308.724 56.5062 308.78 56.7272 308.893 56.9265C309.01 57.1258 309.17 57.2862 309.374 57.4075C309.577 57.5245 309.809 57.583 310.069 57.583C310.307 57.583 310.528 57.5245 310.732 57.4075C310.94 57.2862 311.107 57.1258 311.233 56.9265C311.358 56.7272 311.421 56.5062 311.421 56.2635C311.421 55.9472 311.337 55.685 311.168 55.477C310.999 55.2647 310.762 55.1065 310.459 55.0025C310.16 54.8985 309.811 54.8465 309.413 54.8465V53.6245C309.95 53.6245 310.375 53.5227 310.687 53.319C311.003 53.1153 311.161 52.8163 311.161 52.422C311.161 52.2183 311.109 52.032 311.005 51.863C310.901 51.694 310.762 51.5597 310.589 51.46C310.42 51.356 310.234 51.304 310.03 51.304C309.822 51.304 309.621 51.356 309.426 51.46C309.231 51.5597 309.07 51.694 308.945 51.863C308.823 52.032 308.763 52.2183 308.763 52.422H307.177C307.177 52.0493 307.252 51.7005 307.404 51.3755C307.556 51.0462 307.764 50.758 308.028 50.511C308.297 50.264 308.6 50.0712 308.938 49.9325C309.28 49.7895 309.638 49.718 310.011 49.718C310.5 49.718 310.953 49.8393 311.369 50.082C311.785 50.3247 312.119 50.6497 312.37 51.057C312.621 51.4643 312.747 51.9193 312.747 52.422C312.747 52.773 312.665 53.1175 312.5 53.4555C312.335 53.7935 312.101 54.0318 311.798 54.1705C312.062 54.2658 312.283 54.4262 312.461 54.6515C312.639 54.8725 312.773 55.126 312.864 55.412C312.959 55.6937 313.007 55.9775 313.007 56.2635C313.007 56.7965 312.873 57.284 312.604 57.726C312.335 58.1637 311.978 58.5147 311.532 58.779C311.09 59.039 310.602 59.169 310.069 59.169Z" fill="white"/>
<path d="M299.536 147.169C299.037 147.169 298.559 147.091 298.099 146.935C297.64 146.779 297.239 146.556 296.897 146.265C296.554 145.971 296.31 145.622 296.162 145.219L297.43 144.744C297.503 144.952 297.644 145.139 297.852 145.303C298.065 145.464 298.316 145.589 298.606 145.68C298.901 145.771 299.211 145.817 299.536 145.817C299.882 145.817 300.207 145.761 300.511 145.648C300.818 145.535 301.065 145.379 301.252 145.18C301.442 144.981 301.538 144.747 301.538 144.478C301.538 144.201 301.438 143.973 301.239 143.795C301.044 143.618 300.792 143.477 300.485 143.373C300.181 143.269 299.865 143.191 299.536 143.139C298.899 143.035 298.327 142.883 297.82 142.684C297.317 142.485 296.918 142.205 296.624 141.845C296.333 141.486 296.188 141.018 296.188 140.441C296.188 139.9 296.342 139.427 296.65 139.024C296.962 138.621 297.371 138.309 297.878 138.088C298.39 137.863 298.942 137.75 299.536 137.75C300.025 137.75 300.498 137.828 300.953 137.984C301.412 138.136 301.815 138.359 302.162 138.654C302.513 138.944 302.764 139.297 302.916 139.713L301.635 140.175C301.562 139.963 301.421 139.778 301.213 139.622C301.005 139.462 300.753 139.336 300.459 139.245C300.168 139.154 299.861 139.109 299.536 139.109C299.189 139.105 298.864 139.161 298.561 139.278C298.262 139.391 298.017 139.547 297.826 139.746C297.636 139.945 297.54 140.177 297.54 140.441C297.54 140.766 297.629 141.013 297.807 141.182C297.984 141.351 298.223 141.477 298.522 141.559C298.825 141.637 299.163 141.709 299.536 141.774C300.134 141.869 300.686 142.027 301.193 142.248C301.705 142.469 302.114 142.764 302.422 143.132C302.734 143.496 302.89 143.945 302.89 144.478C302.89 145.015 302.734 145.488 302.422 145.895C302.114 146.298 301.705 146.612 301.193 146.837C300.686 147.059 300.134 147.169 299.536 147.169ZM303.967 144.562V140.5H305.319V144.231C305.319 144.521 305.39 144.786 305.533 145.024C305.676 145.262 305.867 145.453 306.105 145.596C306.344 145.735 306.606 145.804 306.892 145.804C307.182 145.804 307.444 145.735 307.678 145.596C307.917 145.453 308.105 145.262 308.244 145.024C308.387 144.786 308.458 144.521 308.458 144.231V140.5H309.81L309.817 147H308.465L308.458 146.298C308.237 146.567 307.962 146.779 307.633 146.935C307.303 147.091 306.95 147.169 306.573 147.169C306.092 147.169 305.655 147.052 305.26 146.818C304.866 146.584 304.552 146.27 304.318 145.875C304.084 145.481 303.967 145.043 303.967 144.562ZM316.97 142.924V147H315.618V143.256C315.618 142.966 315.547 142.701 315.404 142.463C315.265 142.225 315.077 142.036 314.838 141.897C314.604 141.754 314.34 141.683 314.045 141.683C313.759 141.683 313.497 141.754 313.259 141.897C313.02 142.036 312.83 142.225 312.687 142.463C312.544 142.701 312.472 142.966 312.472 143.256V147H311.12V140.5H312.472V141.189C312.698 140.92 312.975 140.708 313.304 140.552C313.634 140.396 313.989 140.318 314.37 140.318C314.851 140.318 315.289 140.435 315.683 140.669C316.078 140.903 316.39 141.217 316.619 141.611C316.853 142.006 316.97 142.443 316.97 142.924Z" fill="#4F606D"/>
<defs>
<linearGradient id="paint0_linear_174_6726" x1="36.5" y1="47" x2="36.5" y2="130" gradientUnits="userSpaceOnUse">
<stop stop-color="#54BDDE"/>
<stop offset="1" stop-color="#207BE6"/>
</linearGradient>
<linearGradient id="paint1_linear_174_6726" x1="81.5" y1="24" x2="81.5" y2="130" gradientUnits="userSpaceOnUse">
<stop stop-color="#54BDDE"/>
<stop offset="1" stop-color="#207BE6"/>
</linearGradient>
<linearGradient id="paint2_linear_174_6726" x1="126.5" y1="62" x2="126.5" y2="130" gradientUnits="userSpaceOnUse">
<stop stop-color="#54BDDE"/>
<stop offset="1" stop-color="#207BE6"/>
</linearGradient>
<linearGradient id="paint3_linear_174_6726" x1="171.5" y1="34" x2="171.5" y2="130" gradientUnits="userSpaceOnUse">
<stop stop-color="#54BDDE"/>
<stop offset="1" stop-color="#207BE6"/>
</linearGradient>
<linearGradient id="paint4_linear_174_6726" x1="216.5" y1="49" x2="216.5" y2="130" gradientUnits="userSpaceOnUse">
<stop stop-color="#54BDDE"/>
<stop offset="1" stop-color="#207BE6"/>
</linearGradient>
<linearGradient id="paint5_linear_174_6726" x1="261.5" y1="0" x2="261.5" y2="130" gradientUnits="userSpaceOnUse">
<stop stop-color="#54BDDE"/>
<stop offset="1" stop-color="#207BE6"/>
</linearGradient>
<linearGradient id="paint6_linear_174_6726" x1="306.5" y1="38" x2="306.5" y2="130" gradientUnits="userSpaceOnUse">
<stop stop-color="#54BDDE"/>
<stop offset="1" stop-color="#207BE6"/>
</linearGradient>
</defs>
</svg>
