<svg width="32" height="32" viewBox="0 0 32 32" fill="none" xmlns="http://www.w3.org/2000/svg">
<rect width="32" height="32" rx="10" fill="#F2F3F4"/>
<path d="M22.6673 17.4587C22.6673 17.1135 22.3875 16.8337 22.0423 16.8337H19.5423C19.1971 16.8337 18.9173 17.1135 18.9173 17.4587V23.0837H17.6673V9.54199C17.6673 8.93507 17.666 8.54275 17.6271 8.25368C17.5907 7.98259 17.5318 7.89763 17.4843 7.85005C17.4367 7.80247 17.3517 7.74363 17.0806 7.70718C16.7916 7.66832 16.3992 7.66699 15.7923 7.66699C15.1854 7.66699 14.7931 7.66832 14.504 7.70718C14.2329 7.74363 14.148 7.80247 14.1004 7.85005C14.0528 7.89763 13.994 7.9826 13.9575 8.25368C13.9186 8.54275 13.9173 8.93507 13.9173 9.54199V23.0837H12.6673V13.292C12.6673 12.9468 12.3875 12.667 12.0423 12.667H9.54232C9.19714 12.667 8.91732 12.9468 8.91732 13.292V23.0837H7.66732H7.45898C7.11381 23.0837 6.83398 23.3635 6.83398 23.7087C6.83398 24.0538 7.11381 24.3337 7.45898 24.3337H24.1257C24.4708 24.3337 24.7507 24.0538 24.7507 23.7087C24.7507 23.3635 24.4708 23.0837 24.1257 23.0837H23.9173H22.6673V17.4587Z" fill="#4F606D"/>
</svg>
