<svg width="32" height="32" viewBox="0 0 32 32" fill="none" xmlns="http://www.w3.org/2000/svg">
<rect width="32" height="32" rx="10" fill="#F2F3F4"/>
<path fill-rule="evenodd" clip-rule="evenodd" d="M8.88689 8.88738C7.6665 10.1078 7.6665 12.072 7.6665 16.0003C7.6665 19.9287 7.6665 21.8929 8.88689 23.1133C10.1073 24.3337 12.0715 24.3337 15.9998 24.3337C19.9282 24.3337 21.8924 24.3337 23.1128 23.1133C24.3332 21.8929 24.3332 19.9287 24.3332 16.0003C24.3332 12.072 24.3332 10.1078 23.1128 8.88738C21.8924 7.66699 19.9282 7.66699 15.9998 7.66699C12.0715 7.66699 10.1073 7.66699 8.88689 8.88738ZM18.5826 16.0783C18.4286 15.8267 18.2784 15.5813 18.1315 15.4057C17.9755 15.2193 17.7021 14.963 17.284 14.9798C16.8659 14.9965 16.6139 15.274 16.4734 15.4723C16.341 15.6591 16.2109 15.9157 16.0776 16.1788L14.421 19.4452C14.3585 19.5686 14.3063 19.6713 14.2595 19.7595C14.2025 19.6774 14.1386 19.5816 14.0619 19.4666L13.9145 19.2455C13.745 18.9912 13.5949 18.7661 13.451 18.5885C13.2949 18.3959 13.1192 18.2239 12.8823 18.0971C12.6453 17.9703 12.4048 17.9195 12.1579 17.8964C11.9304 17.8752 11.6597 17.8752 11.3542 17.8753H10.1665C9.82133 17.8753 9.5415 18.1551 9.5415 18.5003C9.5415 18.8454 9.82133 19.1253 10.1665 19.1253H11.3285C11.6674 19.1253 11.8793 19.1259 12.0419 19.141C12.1916 19.155 12.253 19.1781 12.2924 19.1992C12.3319 19.2203 12.3851 19.2585 12.4798 19.3754C12.5826 19.5023 12.7006 19.6782 12.8886 19.9602L13.0437 20.1928C13.2006 20.4282 13.3549 20.6599 13.5045 20.8252C13.6652 21.0028 13.94 21.2396 14.346 21.2155C14.7519 21.1913 14.9968 20.9237 15.1353 20.7283C15.2642 20.5465 15.3901 20.2982 15.518 20.0458L17.1742 16.78C17.2395 16.6513 17.294 16.5439 17.3431 16.4515C17.3993 16.5396 17.4623 16.6423 17.5377 16.7654L18.0827 17.6552C18.2494 17.9275 18.397 18.1685 18.5402 18.3586C18.6955 18.5647 18.8729 18.7493 19.117 18.8861C19.3612 19.0229 19.6113 19.0777 19.8682 19.1024C20.1051 19.1253 20.3876 19.1253 20.7069 19.1253L21.8332 19.1253C22.1783 19.1253 22.4582 18.8454 22.4582 18.5003C22.4582 18.1551 22.1783 17.8753 21.8332 17.8753H20.7336C20.3796 17.8753 20.158 17.8746 19.9882 17.8582C19.8317 17.8431 19.7684 17.8182 19.7279 17.7955C19.6875 17.7729 19.6331 17.7319 19.5386 17.6064C19.4359 17.4701 19.3196 17.2815 19.1347 16.9796L18.5826 16.0783Z" fill="#4F606D"/>
</svg>
