<svg width="46" height="44" viewBox="0 0 46 44" fill="none" xmlns="http://www.w3.org/2000/svg">
<g filter="url(#filter0_f_719_864)">
<path d="M19.3225 18.164L23 22.1563L26.6775 18.164C27.4215 17.3564 27.9815 17.1055 28.2234 17.0341C28.3215 17.0051 28.3816 16.9995 28.413 16.9999C28.5178 17.0781 29 17.511 29 18.956C29 19.3739 28.7084 20.4202 27.4278 22.0781C26.2389 23.6172 24.6394 25.1144 23.1632 26.3304C23.1061 26.3774 23.0518 26.4221 23 26.4647C22.9482 26.4221 22.8939 26.3774 22.8368 26.3304C21.3606 25.1144 19.7611 23.6172 18.5722 22.078C17.2915 20.4201 17 19.3738 17 18.956C17 17.5109 17.4823 17.0781 17.5871 17C17.6185 16.9996 17.6785 17.0052 17.7766 17.0341C18.0185 17.1056 18.5785 17.3564 19.3225 18.164ZM28.4406 17.0035C28.4403 17.0041 28.4353 17.0036 28.4265 17.0006C28.4365 17.0015 28.4409 17.003 28.4406 17.0035ZM17.5595 17.0036C17.5592 17.0031 17.5636 17.0015 17.5736 17.0006C17.5648 17.0037 17.5598 17.0041 17.5595 17.0036Z" stroke="#FF4C4C" stroke-width="10" stroke-linecap="round"/>
</g>
<g filter="url(#filter1_i_719_864)">
<path d="M19.3393 13.7377L22.9998 17.6717L26.6604 13.7377C28.648 11.6015 29.8472 12.0204 29.9959 12.0823C30.2807 12.2007 31.3332 12.9104 31.3332 15.3472C31.3332 16.1652 30.8227 17.6332 29.2211 19.6858C27.7144 21.6168 25.7107 23.4689 23.891 24.9527C23.5227 25.253 23.2416 25.4819 22.9999 25.6717C22.7582 25.4819 22.477 25.253 22.1087 24.9527C20.289 23.4688 18.2853 21.6168 16.7785 19.6857C15.177 17.6331 14.6665 16.1651 14.6665 15.3472C14.6665 12.9106 15.719 12.2009 16.0038 12.0824C16.1525 12.0205 17.3517 11.6015 19.3393 13.7377Z" stroke="#FF4C4C" stroke-width="10" stroke-linecap="round"/>
</g>
<defs>
<filter id="filter0_f_719_864" x="0" y="0" width="46" height="44" filterUnits="userSpaceOnUse" color-interpolation-filters="sRGB">
<feFlood flood-opacity="0" result="BackgroundImageFix"/>
<feBlend mode="normal" in="SourceGraphic" in2="BackgroundImageFix" result="shape"/>
<feGaussianBlur stdDeviation="6" result="effect1_foregroundBlur_719_864"/>
</filter>
<filter id="filter1_i_719_864" x="9.6665" y="7" width="26.6665" height="28" filterUnits="userSpaceOnUse" color-interpolation-filters="sRGB">
<feFlood flood-opacity="0" result="BackgroundImageFix"/>
<feBlend mode="normal" in="SourceGraphic" in2="BackgroundImageFix" result="shape"/>
<feColorMatrix in="SourceAlpha" type="matrix" values="0 0 0 0 0 0 0 0 0 0 0 0 0 0 0 0 0 0 127 0" result="hardAlpha"/>
<feOffset dy="4"/>
<feGaussianBlur stdDeviation="2"/>
<feComposite in2="hardAlpha" operator="arithmetic" k2="-1" k3="1"/>
<feColorMatrix type="matrix" values="0 0 0 0 1 0 0 0 0 1 0 0 0 0 1 0 0 0 0.25 0"/>
<feBlend mode="normal" in2="shape" result="effect1_innerShadow_719_864"/>
</filter>
</defs>
</svg>
