<svg width="32" height="32" viewBox="0 0 32 32" fill="none" xmlns="http://www.w3.org/2000/svg">
<rect width="32" height="32" rx="10" fill="#F2F3F4"/>
<path fill-rule="evenodd" clip-rule="evenodd" d="M13.4679 22.1423C11.016 20.1428 7.6665 16.8399 7.6665 13.717C7.6665 8.79125 12.25 6.5522 15.9998 10.5823C19.7497 6.5522 24.3332 8.79109 24.3332 13.717C24.3332 16.84 20.9837 20.1429 18.5317 22.1423C17.4217 23.0474 16.8667 23.5 15.9998 23.5C15.1329 23.5 14.5779 23.0474 13.4679 22.1423ZM14.4108 14.9552C14.4854 14.8486 14.5474 14.7602 14.6026 14.6844C14.6492 14.7657 14.7013 14.8603 14.764 14.9743L16.1892 17.5656C16.3276 17.8174 16.4633 18.0642 16.5996 18.2434C16.7454 18.4351 17.0018 18.6978 17.4126 18.7055C17.8235 18.7133 18.0896 18.4604 18.2425 18.2743C18.3854 18.1004 18.5303 17.8587 18.678 17.6124L18.7242 17.5354C18.9082 17.2288 19.024 17.037 19.1265 16.8985C19.221 16.7709 19.2756 16.7293 19.3163 16.7062C19.357 16.6832 19.4208 16.6578 19.5788 16.6424C19.7503 16.6258 19.9743 16.6251 20.332 16.6251H20.9998C21.345 16.6251 21.6248 16.3453 21.6248 16.0001C21.6248 15.6549 21.345 15.3751 20.9998 15.3751L20.305 15.3751C19.9824 15.3751 19.6971 15.3751 19.4579 15.3983C19.1986 15.4235 18.9463 15.4793 18.7004 15.6185C18.4546 15.7577 18.2769 15.9454 18.1219 16.1547C17.9789 16.3479 17.8322 16.5925 17.6662 16.8692L17.6266 16.9352C17.5543 17.0556 17.494 17.156 17.4401 17.2421C17.3895 17.154 17.3331 17.0515 17.2654 16.9284L15.8408 14.3383C15.7124 14.1047 15.5845 13.8719 15.4547 13.7012C15.3129 13.5148 15.0698 13.2683 14.6802 13.2473C14.2906 13.2262 14.0223 13.4451 13.8613 13.6152C13.7139 13.7709 13.5616 13.9885 13.4087 14.207L13.1509 14.5753C12.9616 14.8457 12.843 15.0142 12.7402 15.1358C12.6457 15.2476 12.5931 15.2843 12.5543 15.3045C12.5155 15.3247 12.4554 15.3467 12.3095 15.36C12.151 15.3745 11.9449 15.3751 11.6149 15.3751H10.9998C10.6547 15.3751 10.3748 15.6549 10.3748 16.0001C10.3748 16.3453 10.6547 16.6251 10.9998 16.6251L11.6399 16.6251C11.9374 16.6251 12.2011 16.6251 12.4232 16.6048C12.6641 16.5828 12.899 16.5343 13.1316 16.4132C13.3641 16.2921 13.5387 16.1275 13.6948 15.9427C13.8388 15.7724 13.99 15.5564 14.1606 15.3127L14.4108 14.9552Z" fill="#4F606D"/>
</svg>
