<svg width="21" height="20" viewBox="0 0 21 20" fill="none" xmlns="http://www.w3.org/2000/svg">
<path d="M7.16667 2.91699C7.16667 2.22664 7.72631 1.66699 8.41667 1.66699H12.5833C13.2737 1.66699 13.8333 2.22664 13.8333 2.91699V3.75033C13.8333 4.44068 13.2737 5.00033 12.5833 5.00033H8.41667C7.72631 5.00033 7.16667 4.44068 7.16667 3.75033V2.91699Z" fill="#95A4B6"/>
<path fill-rule="evenodd" clip-rule="evenodd" d="M5.91667 3.36417C4.86841 3.42298 4.20665 3.59002 3.73223 4.06444C3 4.79668 3 5.97519 3 8.33221V13.3322C3 15.6892 3 16.8677 3.73223 17.6C4.46447 18.3322 5.64298 18.3322 8 18.3322H13C15.357 18.3322 16.5355 18.3322 17.2678 17.6C18 16.8677 18 15.6892 18 13.3322V8.33221C18 5.97519 18 4.79668 17.2678 4.06444C16.7933 3.59002 16.1316 3.42298 15.0833 3.36417V3.75033C15.0833 5.13104 13.964 6.25033 12.5833 6.25033H8.41667C7.03595 6.25033 5.91667 5.13104 5.91667 3.75033V3.36417ZM5.70833 8.75033C5.70833 8.40515 5.98816 8.12533 6.33333 8.12533H14.6667C15.0118 8.12533 15.2917 8.40515 15.2917 8.75033C15.2917 9.0955 15.0118 9.37533 14.6667 9.37533H6.33333C5.98816 9.37533 5.70833 9.0955 5.70833 8.75033ZM6.54167 11.667C6.54167 11.3218 6.82149 11.042 7.16667 11.042H13.8333C14.1785 11.042 14.4583 11.3218 14.4583 11.667C14.4583 12.0122 14.1785 12.292 13.8333 12.292H7.16667C6.82149 12.292 6.54167 12.0122 6.54167 11.667ZM7.375 14.5837C7.375 14.2385 7.65482 13.9587 8 13.9587H13C13.3452 13.9587 13.625 14.2385 13.625 14.5837C13.625 14.9288 13.3452 15.2087 13 15.2087H8C7.65482 15.2087 7.375 14.9288 7.375 14.5837Z" fill="#95A4B6"/>
</svg>
